<?xml version="1.0" encoding="UTF-8" standalone="no"?>
<!DOCTYPE svg PUBLIC "-//W3C//DTD SVG 1.1//EN" "http://www.w3.org/Graphics/SVG/1.1/DTD/svg11.dtd">
<svg width="100%" height="100%" viewBox="0 0 341 350" version="1.1" xmlns="http://www.w3.org/2000/svg" xmlns:xlink="http://www.w3.org/1999/xlink" xml:space="preserve" xmlns:serif="http://www.serif.com/" style="fill-rule:evenodd;clip-rule:evenodd;stroke-linecap:round;stroke-linejoin:round;stroke-miterlimit:1.5;">
    <g transform="matrix(1,0,0,1,-1237.553366,-593.77943)">
        <g>
            <path d="M1545.538,761.849L1544.486,634.64C1544.486,634.64 1539.624,592.587 1488.438,603.626C1488.438,603.626 1462.988,619.532 1465.616,638.981C1465.616,638.981 1427.265,648.307 1427.265,684.052L1500.857,683.526C1500.857,683.526 1516.106,658.59 1462.448,637.711" style="fill:none;stroke:black;stroke-width:16px;"/>
            <path d="M1318.454,902.199C1318.454,902.199 1307.415,917.443 1308.992,917.969C1310.569,918.495 1303.21,929.471 1316.351,933.445C1316.351,933.445 1330.019,943.946 1347.365,906.515" style="fill:none;stroke:black;stroke-width:16px;"/>
            <g transform="matrix(-1.006734,0,0,1,2825.230302,0)">
                <path d="M1318.454,902.199C1318.454,902.199 1307.415,917.443 1308.992,917.969C1310.569,918.495 1303.21,929.471 1316.351,933.445C1316.351,933.445 1330.019,943.946 1347.365,906.515" style="fill:none;stroke:black;stroke-width:15.95px;"/>
            </g>
            <g transform="matrix(1.009804,0,0,0.88793,-12.211308,89.099364)">
                <path d="M1567.255,785.456C1567.255,794.984 1560.453,802.72 1552.074,802.72L1260.734,802.72C1252.356,802.72 1245.553,794.984 1245.553,785.456C1245.553,775.927 1252.356,768.191 1260.734,768.191L1552.074,768.191C1560.453,768.191 1567.255,775.927 1567.255,785.456Z" style="fill:none;stroke:black;stroke-width:16.83px;"/>
            </g>
            <path d="M1260.883,801.859C1260.883,801.859 1267.991,821.774 1269.568,834.389C1271.145,847.005 1274.825,901.674 1343.686,905.879L1463.01,905.879C1463.01,905.879 1525.037,916.918 1545.538,847.005C1545.538,847.005 1550.794,800.343 1558.679,801.859" style="fill:none;stroke:black;stroke-width:16px;"/>
        </g>
    </g>
</svg>
