<?xml version="1.0" encoding="UTF-8" standalone="no"?>
<!DOCTYPE svg PUBLIC "-//W3C//DTD SVG 1.1//EN" "http://www.w3.org/Graphics/SVG/1.1/DTD/svg11.dtd">
<svg width="100%" height="100%" viewBox="0 0 268 347" version="1.1" xmlns="http://www.w3.org/2000/svg" xmlns:xlink="http://www.w3.org/1999/xlink" xml:space="preserve" xmlns:serif="http://www.serif.com/" style="fill-rule:evenodd;clip-rule:evenodd;stroke-linecap:round;stroke-linejoin:round;stroke-miterlimit:1.5;">
    <g transform="matrix(1,0,0,1,-183.75814,-594.937832)">
        <g transform="matrix(1.006667,0,0,0.99211,-1.278388,4.756906)">
            <rect x="191.758" y="602.938" width="98.561" height="333.135" style="fill:none;stroke:black;stroke-width:16.01px;"/>
        </g>
        <g transform="matrix(1.054252,0,0,-0.01387,-15.785923,648.337466)">
            <path d="M241.367,640.391L290.976,639.734C290.976,639.734 244.775,640.929 241.367,640.391Z" style="fill:none;stroke:black;stroke-width:21.46px;"/>
        </g>
        <g transform="matrix(1.054252,0,0,-0.01387,-15.785923,758.414222)">
            <path d="M241.367,640.391L290.976,639.734C290.976,639.734 244.775,640.929 241.367,640.391Z" style="fill:none;stroke:black;stroke-width:21.46px;"/>
        </g>
        <g transform="matrix(1.054252,0,0,-0.01387,-15.785923,905.631792)">
            <path d="M241.367,640.391L290.976,639.734C290.976,639.734 244.775,640.929 241.367,640.391Z" style="fill:none;stroke:black;stroke-width:21.46px;"/>
        </g>
        <g>
            <g transform="matrix(0.940741,0,0,0.969087,23.439677,18.376511)">
                <path d="M333.097,670.018L389.868,615.35L446.638,671.07" style="fill:none;stroke:black;stroke-width:16.75px;"/>
            </g>
            <g transform="matrix(0.940741,0,0,-0.980377,23.439677,1524.853433)">
                <path d="M333.097,670.018L389.868,615.35L446.638,671.07" style="fill:none;stroke:black;stroke-width:16.65px;"/>
            </g>
            <path d="M390.204,921.578L390.204,620.272" style="fill:none;stroke:black;stroke-width:16px;"/>
        </g>
        <g transform="matrix(0.728742,0,0,-0.01387,78.929615,685.747415)">
            <path d="M241.367,640.391L290.976,639.734C290.976,639.734 244.775,640.929 241.367,640.391Z" style="fill:none;stroke:black;stroke-width:31.04px;"/>
        </g>
        <g transform="matrix(0.728742,0,0,-0.01387,78.929615,722.888228)">
            <path d="M241.367,640.391L290.976,639.734C290.976,639.734 244.775,640.929 241.367,640.391Z" style="fill:none;stroke:black;stroke-width:31.04px;"/>
        </g>
        <g transform="matrix(0.728742,0,0,-0.01387,78.929615,795.285899)">
            <path d="M241.367,640.391L290.976,639.734C290.976,639.734 244.775,640.929 241.367,640.391Z" style="fill:none;stroke:black;stroke-width:31.04px;"/>
        </g>
        <g transform="matrix(0.728742,0,0,-0.01387,78.929615,831.888439)">
            <path d="M241.367,640.391L290.976,639.734C290.976,639.734 244.775,640.929 241.367,640.391Z" style="fill:none;stroke:black;stroke-width:31.04px;"/>
        </g>
        <g transform="matrix(0.728742,0,0,-0.01387,78.929615,868.760115)">
            <path d="M241.367,640.391L290.976,639.734C290.976,639.734 244.775,640.929 241.367,640.391Z" style="fill:none;stroke:black;stroke-width:31.04px;"/>
        </g>
    </g>
</svg>
